<svg width="32" height="32" viewBox="0 0 32 32" fill="none" xmlns="http://www.w3.org/2000/svg">
<path d="M13.6666 27C16.6249 26.9994 19.4979 26.0091 21.8283 24.1867L29.1549 31.5134L31.5116 29.1567L24.1849 21.83C26.0083 19.4995 26.9992 16.6258 26.9999 13.6667C26.9999 6.31504 21.0183 0.333374 13.6666 0.333374C6.31492 0.333374 0.333252 6.31504 0.333252 13.6667C0.333252 21.0184 6.31492 27 13.6666 27ZM13.6666 3.66671C19.1816 3.66671 23.6666 8.15171 23.6666 13.6667C23.6666 19.1817 19.1816 23.6667 13.6666 23.6667C8.15159 23.6667 3.66659 19.1817 3.66659 13.6667C3.66659 8.15171 8.15159 3.66671 13.6666 3.66671Z" fill="#E6EBE7"/>
</svg>
